<?xml version="1.0" standalone="no"?>
<!DOCTYPE svg PUBLIC "-//W3C//DTD SVG 20010904//EN"
 "http://www.w3.org/TR/2001/REC-SVG-20010904/DTD/svg10.dtd">
<svg version="1.0" xmlns="http://www.w3.org/2000/svg"
 width="980.000000pt" height="980.000000pt" viewBox="0 0 980.000000 980.000000"
 preserveAspectRatio="xMidYMid meet">

<g transform="translate(0.000000,980.000000) scale(0.100000,-0.100000)"
fill="#000000" stroke="none">
<path d="M3041 8525 c-130 -29 -266 -86 -367 -156 -122 -84 -259 -244 -324
-380 l-23 -46 -107 -5 c-165 -8 -250 -56 -306 -173 -20 -42 -24 -66 -24 -143
0 -89 -1 -93 -25 -104 -24 -11 -30 -7 -88 49 -85 84 -133 107 -222 107 -114 0
-150 -23 -351 -226 -99 -100 -182 -192 -195 -218 -20 -37 -24 -60 -24 -130 0
-74 3 -91 27 -130 14 -25 51 -69 81 -99 44 -44 53 -59 47 -75 -6 -19 -18 -22
-106 -26 -148 -9 -231 -57 -286 -168 -22 -46 -23 -54 -23 -323 l0 -275 30 -59
c34 -66 101 -125 165 -144 20 -6 76 -11 124 -11 81 0 87 -2 95 -22 7 -20 0
-32 -49 -83 -31 -33 -67 -80 -80 -105 -31 -61 -37 -152 -15 -221 16 -49 37
-74 214 -251 188 -188 199 -197 255 -213 121 -35 224 -3 326 100 47 48 55 52
76 43 23 -11 24 -16 24 -99 0 -101 16 -152 65 -214 50 -62 121 -96 215 -102
l79 -6 3 -1261 3 -1261 27 -96 c96 -349 336 -597 683 -706 l90 -28 1800 -3
c1237 -2 1822 1 1870 8 103 16 254 71 346 126 152 92 317 273 383 422 l19 42
92 0 c168 0 262 49 316 164 25 54 29 72 29 154 0 89 1 93 25 104 23 10 30 6
98 -60 87 -83 151 -109 245 -98 90 11 137 45 330 240 195 198 212 224 212 331
0 85 -25 140 -100 219 -56 59 -66 75 -60 92 8 20 17 22 107 26 124 5 194 35
248 106 61 79 67 118 63 410 -3 242 -4 259 -25 298 -34 64 -67 97 -125 129
-47 26 -65 30 -154 33 -92 4 -103 6 -112 26 -8 18 0 31 58 92 81 85 104 142
98 237 -6 101 -29 135 -236 339 -177 176 -190 187 -246 203 -72 21 -157 15
-216 -15 -22 -11 -69 -47 -104 -81 -57 -53 -68 -59 -85 -49 -19 10 -21 20 -21
104 0 84 -3 99 -31 154 -51 102 -127 150 -255 159 l-73 6 -3 1266 -3 1266 -23
85 c-95 349 -352 609 -707 714 -70 20 -82 21 -1890 23 -1524 1 -1830 -1 -1884
-12z m3704 -255 c310 -79 526 -339 552 -662 l6 -78 -2403 0 -2402 0 7 78 c30
331 235 581 545 661 73 19 126 20 1846 20 1741 1 1772 1 1849 -19z m-4489
-617 c-3 -21 -6 -165 -6 -319 l0 -282 -66 -16 c-278 -70 -505 -303 -568 -583
-23 -101 -21 -270 3 -365 21 -81 71 -191 119 -260 34 -48 143 -158 188 -189
56 -39 186 -98 255 -116 l69 -17 0 -318 0 -318 -50 0 c-38 0 -52 4 -60 19 -5
11 -10 75 -10 143 0 161 -7 174 -122 218 -46 18 -101 41 -122 52 -29 15 -52
19 -88 16 -46 -5 -55 -11 -142 -97 -51 -50 -99 -91 -107 -91 -14 0 -303 282
-320 313 -8 15 5 34 85 116 52 54 98 110 102 125 9 39 1 69 -53 196 -66 155
-73 160 -239 160 -67 0 -129 3 -138 6 -14 5 -16 36 -16 235 l0 229 26 10 c14
6 81 10 149 10 114 0 126 2 149 23 23 20 92 171 118 258 18 57 3 86 -98 190
-52 53 -94 101 -94 105 0 14 314 324 329 324 8 0 57 -42 110 -93 114 -111 141
-121 218 -86 26 12 84 37 128 54 116 46 125 61 125 226 0 151 4 159 82 159
l51 0 -7 -37z m5042 -2753 c-2 -1309 -6 -2380 -10 -2380 -5 0 -1083 0 -2398 0
l-2390 0 0 2379 0 2380 28 3 c15 2 1095 2 2400 0 l2372 -2 -2 -2380z m-5048
1374 l0 -515 -22 6 c-258 78 -429 357 -374 612 35 166 139 303 285 376 123 62
111 115 111 -479z m5411 -1494 c8 -185 12 -193 120 -234 35 -13 89 -36 119
-50 98 -46 127 -36 240 79 41 42 83 81 94 87 16 9 40 -11 177 -148 88 -87 159
-166 159 -174 0 -9 -37 -51 -81 -95 -45 -44 -90 -99 -100 -122 -22 -47 -24
-39 51 -222 58 -138 62 -141 236 -141 88 0 134 -4 142 -12 9 -9 12 -74 12
-229 0 -184 -2 -220 -16 -233 -12 -13 -41 -16 -150 -16 -132 0 -134 0 -163
-27 -33 -32 -124 -249 -123 -294 1 -43 25 -78 111 -164 45 -44 81 -86 81 -95
0 -22 -301 -320 -324 -320 -11 0 -61 40 -117 95 -119 118 -121 118 -298 42
-166 -70 -165 -69 -170 -245 -2 -89 -7 -140 -15 -144 -6 -4 -33 -8 -60 -8
l-48 0 6 31 c3 17 6 160 6 318 l0 287 71 18 c39 10 113 39 163 64 123 62 259
196 325 320 66 127 82 187 88 337 4 110 2 143 -16 219 -66 274 -293 506 -564
572 l-67 17 0 314 0 314 53 -3 52 -3 6 -135z m46 -812 c31 -18 80 -60 110 -93
199 -219 182 -549 -39 -750 -50 -46 -146 -102 -205 -120 l-23 -6 0 520 0 521
51 -20 c28 -10 76 -34 106 -52z m-411 -1786 c-16 -190 -96 -355 -236 -485 -81
-75 -191 -136 -306 -169 l-79 -23 -1775 0 -1775 0 -79 23 c-307 89 -516 341
-542 654 l-7 78 2403 0 2403 0 -7 -78z"/>
<path d="M3873 8029 c-92 -27 -105 -167 -21 -219 30 -18 50 -20 206 -20 187 0
214 6 246 54 9 14 16 45 16 71 0 38 -6 52 -34 83 l-34 37 -174 2 c-95 1 -187
-2 -205 -8z"/>
<path d="M4524 8026 c-68 -30 -94 -109 -59 -176 32 -63 5 -61 774 -58 683 3
699 3 721 23 33 30 52 80 44 121 -8 43 -53 89 -95 98 -17 3 -329 6 -693 6
-531 -1 -667 -3 -692 -14z"/>
<path d="M5100 6932 c-46 -7 -79 -40 -95 -95 -8 -29 -58 -232 -110 -452 -53
-220 -111 -465 -130 -545 -19 -80 -67 -278 -105 -440 -39 -162 -80 -334 -91
-382 -25 -102 -21 -128 26 -175 28 -28 40 -33 79 -33 36 0 52 6 80 30 32 29
37 42 71 183 20 84 54 226 76 317 21 91 98 410 169 710 72 300 142 594 157
653 22 93 24 114 14 147 -17 58 -75 92 -141 82z"/>
<path d="M3838 6322 l-398 -397 0 -43 c0 -24 6 -55 14 -70 8 -15 185 -197 393
-404 322 -321 383 -378 414 -383 94 -17 175 80 140 168 -3 10 -155 166 -336
347 l-330 330 326 327 c180 181 332 338 338 350 40 79 -25 173 -119 173 l-45
0 -397 -398z"/>
<path d="M5430 6682 c-32 -32 -40 -47 -40 -76 0 -21 5 -47 11 -59 6 -12 158
-169 337 -349 l327 -328 -330 -330 c-181 -182 -333 -338 -337 -348 -34 -87 47
-184 141 -167 31 5 92 62 414 383 208 207 385 389 393 404 8 15 14 46 14 70
l0 42 -394 395 -393 394 -52 5 c-49 4 -52 3 -91 -36z"/>
<path d="M3460 4303 c-62 -20 -90 -56 -90 -118 0 -51 26 -94 65 -111 51 -21
2879 -21 2930 0 41 18 65 61 65 119 0 49 -28 89 -75 107 -27 10 -2865 13
-2895 3z"/>
<path d="M3433 3694 c-61 -31 -83 -106 -50 -171 35 -67 -67 -63 1517 -63 1305
0 1435 1 1466 16 61 29 83 107 49 173 -33 65 57 61 -1517 61 -1285 0 -1436 -2
-1465 -16z"/>
<path d="M3433 3095 c-57 -24 -82 -98 -54 -160 36 -81 -91 -75 1521 -75 1305
0 1435 1 1466 16 43 20 64 59 64 117 0 49 -28 89 -75 107 -17 6 -537 10 -1458
10 -1195 -1 -1437 -3 -1464 -15z"/>
<path d="M4540 1997 c-34 -17 -70 -74 -70 -111 0 -17 9 -45 20 -63 37 -62 45
-63 405 -63 361 0 379 3 415 62 36 60 18 131 -43 168 -30 19 -52 20 -367 20
-248 0 -341 -4 -360 -13z"/>
</g>
</svg>
