<?xml version="1.0" standalone="no"?>
<!DOCTYPE svg PUBLIC "-//W3C//DTD SVG 20010904//EN"
 "http://www.w3.org/TR/2001/REC-SVG-20010904/DTD/svg10.dtd">
<svg version="1.0" xmlns="http://www.w3.org/2000/svg"
 width="1181.000000pt" height="900.000000pt" viewBox="0 0 1181.000000 900.000000"
 preserveAspectRatio="xMidYMid meet">

<g transform="translate(0.000000,900.000000) scale(0.100000,-0.100000)"
fill="#000000" stroke="none">
<path d="M4165 7263 c-240 -54 -423 -236 -470 -465 -12 -62 -15 -157 -15 -495
0 -393 1 -420 19 -449 31 -50 108 -53 139 -6 13 20 18 56 21 169 l3 143 1907
-2 1906 -3 0 -135 0 -135 -856 -5 -855 -5 -75 -37 c-86 -43 -141 -91 -192
-168 -71 -107 -67 -22 -67 -1550 0 -1312 1 -1379 19 -1443 35 -126 141 -241
262 -286 108 -39 150 -41 969 -41 l795 0 0 -122 0 -123 -1905 0 -1905 0 -5
390 c-3 215 -9 398 -14 408 -16 33 -76 48 -121 31 -45 -18 -45 -21 -45 -777 0
-615 2 -726 16 -793 46 -225 214 -401 436 -454 81 -19 119 -20 1640 -20 856 0
1563 3 1572 6 9 3 17 16 17 28 1 16 2 17 6 3 14 -54 209 30 310 135 68 69 85
92 117 157 52 102 56 145 56 658 l0 472 463 3 462 3 68 27 c139 53 234 146
283 273 18 48 19 101 22 1439 3 1486 4 1441 -45 1544 -32 67 -129 159 -211
200 l-76 37 -480 5 -481 5 -5 465 c-5 437 -6 468 -26 521 -62 171 -193 303
-364 366 l-75 28 -1600 1 c-880 1 -1609 0 -1620 -3z m3170 -174 c116 -21 230
-100 288 -200 48 -81 58 -146 55 -360 l-3 -194 -1907 -3 -1908 -2 0 209 c0
181 3 217 20 271 44 138 179 256 320 280 74 13 3067 12 3135 -1z m1477 -1407
c73 -36 125 -96 148 -171 19 -61 20 -97 20 -1396 0 -1260 -1 -1335 -18 -1387
-24 -72 -74 -131 -142 -165 l-55 -28 -1362 -3 -1362 -2 -56 21 c-75 28 -136
88 -163 162 l-22 58 2 1362 3 1362 21 46 c38 82 112 142 197 159 23 4 650 7
1392 7 l1350 -2 47 -23z m-1137 -4017 c0 -301 -6 -335 -79 -431 -51 -67 -114
-112 -201 -146 l-60 -23 -1565 0 -1565 0 -65 23 c-125 45 -218 139 -259 261
-19 60 -21 86 -21 323 l0 258 1908 -2 1907 -3 0 -260z"/>
<path d="M5276 6774 c-35 -35 -35 -86 -1 -119 l24 -25 468 0 c493 1 486 0 511
47 18 33 14 59 -14 92 l-26 31 -468 0 -467 0 -27 -26z"/>
<path d="M6104 5438 c-41 -20 -44 -44 -44 -402 l0 -343 25 -27 24 -26 1279 0
c1270 0 1278 0 1300 20 12 11 24 31 27 43 3 12 5 174 3 360 l-3 339 -28 24
-28 24 -1267 -1 c-851 0 -1274 -4 -1288 -11z m2436 -393 l0 -235 -1150 0
-1150 0 0 235 0 235 1150 0 1150 0 0 -235z"/>
<path d="M6090 4430 l-25 -19 -3 -359 -3 -359 27 -26 27 -27 468 0 468 0 25
33 26 34 0 338 0 338 -26 34 -25 33 -467 0 c-445 0 -468 -1 -492 -20z m838
-365 c2 -115 0 -220 -3 -232 l-5 -23 -340 0 -340 0 0 235 0 235 343 -2 342 -3
3 -210z"/>
<path d="M7724 4442 c-5 -4 -18 -18 -27 -32 -15 -22 -17 -62 -17 -366 l0 -342
26 -31 26 -31 468 0 468 0 26 31 26 31 0 343 0 343 -26 31 -26 31 -466 0
c-257 0 -472 -4 -478 -8z m816 -397 l0 -235 -342 2 -343 3 -3 220 c-1 121 0
225 2 232 4 10 79 13 346 13 l340 0 0 -235z"/>
<path d="M6108 3424 c-66 -35 -63 -130 5 -154 19 -6 191 -10 477 -10 433 0
448 1 473 20 53 42 39 127 -24 149 -22 7 -174 11 -468 11 -365 -1 -440 -3
-463 -16z"/>
<path d="M7723 3420 c-61 -37 -50 -132 18 -151 13 -4 222 -7 464 -8 336 -1
446 2 465 12 59 30 63 114 7 148 -30 18 -55 19 -477 19 -423 0 -447 -1 -477
-20z"/>
<path d="M6128 3053 c-15 -2 -37 -16 -48 -30 -29 -37 -26 -79 9 -114 l29 -29
322 0 322 0 29 29 c48 48 36 111 -26 137 -27 11 -94 14 -322 13 -158 -1 -300
-4 -315 -6z"/>
<path d="M7751 3050 c-44 -10 -60 -28 -68 -73 -5 -31 -1 -40 25 -67 l30 -30
321 0 320 0 28 24 c36 31 39 95 5 128 -21 22 -27 22 -324 24 -167 1 -318 -1
-337 -6z"/>
<path d="M5694 1775 c-89 -28 -143 -73 -186 -155 -18 -36 -23 -61 -23 -125 0
-72 3 -86 33 -136 33 -57 68 -91 132 -125 53 -28 181 -26 241 3 147 73 207
246 134 388 -39 75 -93 121 -173 145 -73 23 -100 23 -158 5z m126 -180 c59
-30 77 -97 43 -155 -20 -35 -52 -50 -104 -50 -64 0 -107 52 -100 120 9 81 88
123 161 85z"/>
<path d="M3701 5575 c-76 -24 -125 -89 -153 -205 -15 -60 -21 -67 -83 -86
l-53 -17 -73 38 c-62 32 -84 38 -134 38 -37 0 -72 -6 -92 -17 -38 -19 -191
-174 -212 -214 -9 -16 -15 -55 -15 -92 0 -57 5 -74 42 -140 l41 -76 -20 -55
-20 -55 -87 -29 c-105 -34 -163 -84 -182 -155 -16 -59 -8 -262 12 -310 24 -58
76 -94 174 -124 l89 -28 22 -55 22 -56 -40 -78 c-44 -89 -52 -164 -23 -224 9
-19 57 -74 109 -124 71 -69 103 -92 136 -101 46 -13 133 -8 153 8 6 6 37 23
68 40 l57 30 58 -23 58 -24 25 -78 c32 -100 57 -135 122 -167 46 -23 64 -26
161 -26 134 0 179 13 233 65 40 39 62 83 84 172 9 38 16 44 67 68 l56 25 94
-46 c102 -51 139 -54 213 -18 42 20 193 176 215 221 28 59 20 129 -26 219
l-42 82 19 53 c21 59 35 69 129 95 48 13 69 25 107 64 56 58 62 85 57 258 -4
112 -6 121 -33 160 -34 50 -91 85 -166 102 -78 18 -83 22 -104 84 l-19 56 43
86 c39 78 42 91 37 139 -7 69 -40 118 -142 212 -119 110 -192 119 -330 43
l-73 -40 -54 21 -55 21 -28 89 c-24 75 -36 97 -71 129 -23 21 -59 43 -80 49
-54 15 -240 13 -293 -4z m257 -178 c6 -7 22 -53 37 -102 14 -49 32 -97 41
-106 20 -22 214 -99 251 -99 29 0 45 7 156 68 31 18 60 32 63 32 3 0 37 -30
75 -67 71 -68 81 -91 55 -128 -7 -11 -30 -52 -50 -92 l-37 -71 40 -94 c21 -51
46 -110 54 -130 15 -35 20 -38 119 -68 57 -18 108 -34 114 -35 7 -2 13 -36 16
-87 6 -138 12 -130 -107 -167 -57 -18 -109 -39 -116 -47 -20 -24 -99 -225 -99
-251 0 -21 19 -61 82 -177 9 -17 17 -34 18 -38 0 -12 -133 -148 -145 -148 -7
0 -55 22 -106 50 -52 27 -102 50 -112 50 -10 0 -43 -13 -75 -28 -31 -16 -81
-38 -111 -48 -65 -23 -83 -47 -106 -148 -28 -117 -28 -117 -148 -114 l-102 3
-28 90 c-40 125 -41 129 -68 142 -36 18 -201 84 -225 90 -13 3 -54 -14 -112
-46 -51 -28 -100 -51 -110 -51 -17 0 -152 124 -152 140 0 5 23 52 50 104 28
52 50 104 50 116 0 12 -9 38 -20 58 -27 50 -70 148 -70 161 0 20 -51 49 -116
65 -37 9 -82 23 -100 31 l-34 14 0 99 c0 69 4 103 13 110 7 6 49 21 92 33 110
29 132 44 149 99 8 25 29 80 48 123 l33 79 -54 102 c-30 56 -52 107 -50 113
10 28 123 143 141 143 11 0 57 -20 102 -45 98 -53 126 -55 204 -16 31 15 75
34 97 41 22 7 46 17 53 23 18 14 38 64 58 145 9 37 21 73 26 80 15 17 202 17
216 -1z"/>
<path d="M3800 4944 c-162 -27 -248 -69 -348 -171 -225 -228 -226 -589 -2
-813 112 -112 252 -170 411 -170 166 0 293 53 410 169 235 235 226 609 -19
838 -51 48 -175 115 -242 131 -54 13 -175 22 -210 16z m174 -189 c189 -50 321
-255 287 -450 -6 -38 -21 -90 -33 -115 -28 -59 -131 -160 -189 -188 -275 -127
-579 66 -579 368 0 143 65 258 196 348 71 49 211 65 318 37z"/>
</g>
</svg>
