<?xml version="1.0" standalone="no"?>
<!DOCTYPE svg PUBLIC "-//W3C//DTD SVG 20010904//EN"
 "http://www.w3.org/TR/2001/REC-SVG-20010904/DTD/svg10.dtd">
<svg version="1.0" xmlns="http://www.w3.org/2000/svg"
 width="512.000000pt" height="512.000000pt" viewBox="0 0 512.000000 512.000000"
 preserveAspectRatio="xMidYMid meet">

<g transform="translate(0.000000,512.000000) scale(0.100000,-0.100000)"
fill="#000000" stroke="none">
<path d="M893 4952 c-73 -26 -136 -81 -170 -150 l-28 -57 -3 -1731 c-2 -1682
-2 -1732 17 -1755 26 -32 86 -32 112 0 18 22 19 72 19 1507 l0 1484 1235 0
1235 0 0 -195 c0 -207 5 -235 47 -254 34 -16 47 -14 77 10 l26 20 0 448 c0
503 0 504 -72 586 -22 25 -64 58 -92 73 l-51 27 -1150 2 c-1085 2 -1153 2
-1202 -15z m2338 -152 c71 -37 79 -62 79 -242 l0 -158 -1235 0 -1235 0 0 151
c0 177 12 213 84 249 40 20 58 20 1154 20 1100 0 1113 0 1153 -20z"/>
<path d="M2038 4675 c-37 -20 -47 -69 -20 -104 l19 -26 226 -3 c216 -2 228 -1
247 18 30 30 27 83 -6 109 -25 20 -39 21 -233 21 -160 -1 -212 -4 -233 -15z"/>
<path d="M2217 4052 c-19 -21 -467 -1143 -467 -1170 0 -51 70 -87 114 -58 18
11 76 148 250 584 124 313 226 581 226 595 0 57 -85 91 -123 49z"/>
<path d="M1535 3830 c-11 -4 -98 -86 -192 -182 -145 -146 -173 -179 -173 -204
0 -24 29 -59 178 -212 191 -197 202 -204 256 -161 19 15 26 29 26 57 0 33 -12
48 -140 176 l-139 141 139 141 c127 127 140 144 140 176 0 52 -49 87 -95 68z"/>
<path d="M2563 3830 c-27 -11 -43 -40 -43 -76 0 -22 29 -56 140 -169 l141
-141 -141 -146 c-152 -159 -162 -177 -115 -223 49 -50 63 -41 257 153 159 159
178 181 178 211 0 29 -19 53 -162 203 -145 152 -199 199 -225 197 -4 0 -18 -4
-30 -9z"/>
<path d="M3171 3251 c-10 -10 -21 -39 -24 -67 -3 -27 -9 -74 -12 -105 l-7 -55
-63 -28 -63 -27 -88 60 c-52 37 -98 61 -113 61 -20 0 -55 -29 -152 -127 -70
-71 -129 -136 -132 -146 -9 -26 5 -55 67 -132 31 -38 56 -74 56 -80 0 -7 -35
-102 -46 -123 0 -1 -46 -10 -102 -20 -148 -27 -142 -16 -142 -242 0 -228 -7
-217 142 -236 57 -7 103 -13 104 -13 1 -1 13 -30 28 -65 l27 -64 -56 -78 c-58
-82 -71 -110 -61 -141 3 -11 62 -74 129 -141 152 -150 149 -149 269 -57 l85
65 59 -26 c32 -14 62 -30 65 -36 4 -5 12 -51 19 -101 17 -113 35 -137 105
-137 l45 0 0 -85 0 -85 -1288 0 -1289 0 -21 -23 c-22 -23 -22 -29 -22 -310 0
-262 2 -291 20 -340 27 -73 79 -130 148 -164 l57 -28 1160 0 1160 0 53 24 c31
14 70 43 96 72 75 84 76 89 76 541 l0 398 59 0 c90 0 100 12 117 145 8 60 15
109 17 110 55 25 121 46 132 42 7 -3 44 -28 82 -55 37 -27 78 -53 90 -56 36
-11 74 17 192 140 137 145 136 144 47 258 l-65 83 26 65 25 64 100 16 c151 25
148 19 148 239 0 225 5 217 -145 238 l-107 16 -25 63 -25 63 61 91 c50 73 61
97 56 117 -8 33 -240 268 -272 276 -30 7 -52 -5 -135 -71 -37 -30 -71 -54 -76
-54 -5 0 -35 11 -68 24 l-59 24 -17 102 c-10 62 -24 110 -34 121 -16 17 -34
19 -206 19 -170 0 -190 -2 -207 -19z m308 -208 c20 -128 26 -136 116 -164 22
-6 66 -25 97 -40 32 -16 69 -29 82 -29 15 0 54 24 102 61 l77 61 60 -60 61
-61 -57 -83 c-31 -46 -57 -91 -57 -101 0 -10 13 -43 29 -75 16 -31 37 -83 47
-116 10 -32 27 -64 39 -72 11 -7 62 -18 113 -25 l92 -12 0 -87 0 -87 -91 -13
c-50 -7 -99 -20 -110 -29 -11 -9 -33 -53 -48 -99 -16 -45 -36 -93 -45 -107
-29 -45 -21 -81 39 -157 30 -38 55 -73 55 -77 0 -4 -27 -33 -59 -65 l-59 -59
-78 57 c-43 31 -88 56 -101 56 -12 0 -53 -15 -90 -34 -37 -19 -87 -39 -110
-45 -63 -17 -80 -45 -88 -151 l-7 -90 -88 0 -88 0 -6 28 c-3 15 -10 56 -17 92
-6 35 -15 72 -19 81 -5 9 -43 28 -83 42 -41 15 -98 38 -127 51 -63 29 -77 26
-158 -40 -31 -26 -63 -49 -70 -52 -14 -5 -122 95 -122 113 0 6 20 39 45 73 71
98 72 101 26 201 -21 47 -44 103 -50 123 -7 20 -19 42 -26 48 -8 7 -57 17
-107 24 l-93 11 -3 87 -3 86 28 6 c15 3 57 10 93 16 36 7 73 19 82 27 9 8 27
45 39 82 12 36 32 85 45 108 37 64 32 88 -36 173 l-60 75 61 61 61 62 75 -54
c41 -29 84 -56 94 -59 12 -4 42 5 77 23 31 16 87 39 125 51 37 13 71 31 77 40
7 14 30 160 30 193 0 5 40 8 89 8 l88 0 12 -77z m-169 -2407 c0 -225 -1 -234
-22 -266 -13 -18 -39 -41 -58 -51 -33 -18 -84 -19 -1149 -19 -1094 0 -1115 0
-1156 20 -26 13 -49 34 -63 59 -21 37 -22 51 -22 265 l0 226 1235 0 1235 0 0
-234z"/>
<path d="M3273 2615 c-107 -33 -214 -131 -254 -233 -18 -45 -23 -77 -24 -152
0 -87 3 -101 32 -162 122 -258 448 -313 648 -110 207 210 111 573 -174 656
-65 19 -170 20 -228 1z m245 -172 c56 -34 107 -112 117 -178 9 -64 -17 -146
-62 -196 -35 -39 -80 -69 -103 -69 -6 0 -10 55 -10 159 l0 160 -26 20 c-36 28
-60 26 -95 -8 l-29 -29 0 -151 c0 -83 -3 -151 -7 -151 -3 0 -25 11 -48 24
-132 78 -152 280 -38 388 79 75 208 89 301 31z"/>
<path d="M1682 607 c-40 -43 -19 -107 40 -122 13 -3 182 -5 376 -3 l354 3 19
24 c25 30 24 76 -1 101 -19 19 -33 20 -393 20 l-374 0 -21 -23z"/>
</g>
</svg>
